<svg width="1042" height="394" viewBox="0 0 1042 394" fill="none" xmlns="http://www.w3.org/2000/svg">
<rect width="1042" height="394" fill="white"/>
<path d="M275.71 3.94006H73.29C34.7405 3.94006 3.48999 39.22 3.48999 82.7401V311.26C3.48999 354.78 34.7405 390.06 73.29 390.06H275.71C314.259 390.06 345.51 354.78 345.51 311.26V82.7401C345.51 39.22 314.259 3.94006 275.71 3.94006Z" fill="#5371FF"/>
<g clip-path="url(#clip0)">
<path d="M149.624 337.872C157.466 337.872 163.823 330.695 163.823 321.842C163.823 312.99 157.466 305.813 149.624 305.813C141.782 305.813 135.425 312.99 135.425 321.842C135.425 330.695 141.782 337.872 149.624 337.872Z" fill="white"/>
<path d="M166.234 253.067C157.982 244.581 151.671 217.713 175.428 207.824C198.095 198.388 224.815 257.767 182.109 270.004C136.118 283.19 116.191 191.132 159.59 156.93C273.217 67.3502 146.63 -10.4889 159.151 116.428C180.247 291.187 182.802 289.043 183.606 313.313C184.151 330.166 174.772 343.519 158.897 339.769C153.75 338.533 159.992 333.295 159.733 333.176C154.734 330.333 148.714 337.912 144.699 336.962C176.417 356.741 187.621 331.444 186.711 312.447C186.087 299.261 168.091 117.252 168.091 111.937C168.091 57.2933 197.185 63.8864 194.699 89.3092C192.213 114.732 140.361 156.93 126.999 188.044C113.636 219.158 116.45 260.443 157.881 275.689C198.905 290.775 237.304 237.988 217.266 209.717C186.933 166.903 129.628 221.004 166.239 253.073L166.234 253.067ZM134.077 103.738H73.4804C72.1438 103.736 70.8624 103.136 69.9172 102.069C68.9721 101.002 68.4405 99.5552 68.4391 98.0463C68.4391 94.9169 70.7032 92.3609 73.4804 92.3609H134.071C136.843 92.3609 139.107 94.9169 139.107 98.0463C139.107 101.176 136.88 103.738 134.071 103.738H134.077ZM275.513 103.738H224.994C223.659 103.734 222.379 103.134 221.435 102.067C220.491 101 219.96 99.5542 219.958 98.0463C219.958 94.9169 222.223 92.3609 225 92.3609H275.518C278.29 92.3609 280.549 94.9169 280.549 98.0463C280.548 99.5542 280.017 101 279.073 102.067C278.129 103.134 276.849 103.734 275.513 103.738ZM118.926 155.037H48.2263C45.4544 155.037 43.1903 152.481 43.1903 149.352C43.1903 146.222 45.4491 143.666 48.2263 143.666H118.921C121.698 143.666 123.957 146.216 123.957 149.352C123.965 150.101 123.84 150.844 123.589 151.538C123.339 152.232 122.968 152.862 122.499 153.391C122.03 153.921 121.472 154.34 120.857 154.622C120.243 154.905 119.584 155.046 118.921 155.037H118.926Z" fill="white"/>
<path d="M300.772 155.037H194.704C191.927 155.037 189.663 152.481 189.663 149.352C189.663 146.222 191.927 143.666 194.704 143.666H300.772C303.544 143.666 305.808 146.216 305.808 149.352C305.81 150.099 305.681 150.839 305.428 151.529C305.175 152.22 304.804 152.847 304.337 153.375C303.869 153.904 303.313 154.322 302.701 154.607C302.09 154.893 301.434 155.039 300.772 155.037ZM93.6668 206.378H33.076C30.3041 206.378 28.04 203.828 28.04 200.693C28.04 197.558 30.3041 195.008 33.076 195.008H93.6668C96.444 195.008 98.7081 197.564 98.7081 200.693C98.7081 203.822 96.481 206.378 93.6668 206.378ZM315.918 206.378H240.145C237.373 206.378 235.109 203.828 235.109 200.693C235.109 197.558 237.373 195.008 240.145 195.008H315.918C318.695 195.008 320.959 197.564 320.959 200.693C320.959 203.822 318.695 206.378 315.918 206.378ZM103.781 257.678H53.2624C51.9285 257.675 50.65 257.075 49.7063 256.011C48.7626 254.947 48.2305 253.504 48.2263 251.998C48.2263 248.863 50.4904 246.307 53.2624 246.307H103.781C106.553 246.307 108.817 248.863 108.817 251.998C108.814 253.505 108.283 254.949 107.339 256.015C106.395 257.081 105.116 257.681 103.781 257.684V257.678ZM300.772 257.678H240.15C238.815 257.676 237.535 257.078 236.591 256.013C235.646 254.949 235.113 253.505 235.109 251.998C235.109 248.863 237.373 246.307 240.145 246.307H300.735C303.507 246.307 305.771 248.863 305.771 251.998C305.777 252.743 305.652 253.482 305.403 254.172C305.154 254.862 304.787 255.489 304.322 256.018C303.857 256.546 303.304 256.966 302.695 257.252C302.086 257.538 301.432 257.685 300.772 257.684V257.678ZM113.89 309.025H78.5217C75.7445 309.025 73.4857 306.469 73.4857 303.34C73.4857 300.21 75.7445 297.654 78.5217 297.654H113.89C116.662 297.654 118.926 300.21 118.926 303.34C118.923 304.847 118.392 306.291 117.448 307.356C116.504 308.422 115.225 309.022 113.89 309.025Z" fill="white"/>
<path d="M270.44 309.025H214.885C212.113 309.025 209.849 306.469 209.849 303.34C209.849 300.21 212.113 297.654 214.885 297.654H270.44C273.212 297.654 275.476 300.21 275.476 303.34C275.481 304.088 275.354 304.83 275.103 305.522C274.851 306.214 274.481 306.843 274.012 307.372C273.543 307.901 272.986 308.32 272.373 308.604C271.76 308.887 271.103 309.031 270.44 309.025Z" fill="white"/>
</g>
<path d="M617.183 234.928H703.299V205.249H733.9V280H586.01V205.249H703.299L695.897 218.452H617.183V234.928ZM735 126.65L727.894 139.576H692.344V186.008H735L727.894 199.211H585.46V186.008H622.639V139.576H585.46V126.65H608.152L604.874 114H635.497L638.775 126.65H682.235L685.513 114H716.136L712.858 126.65H735ZM573.977 261.036L523.411 279.724V180.523H507V167.597H554.837V253.892L573.977 246.473V261.036ZM703.299 247.854H617.183V266.266H703.299V247.854ZM551.56 114.553L561.668 152.205H529.967L519.858 114.553H551.56ZM582.182 149.462H611.43L621.011 173.911H592.016L582.182 149.462ZM703.827 149.462H733.097L723.242 173.911H694.268L703.827 149.462ZM653.812 139.576V186.008H661.192V139.576H653.812Z" fill="#191919" stroke="#191919" stroke-width="0.43" stroke-linecap="square"/>
<path d="M866.549 113L885.181 147.621H851.478L832.295 113H866.549ZM873.12 162.896V249.079L893.405 238.446L887.11 257.539L841.897 281V174.9H826V162.896H873.12ZM997.798 129.351H904.088V116.819H1028.49V190.723H934.781V263.004H1040L1033.7 274.713H904.088V178.719H997.798V129.351Z" fill="#191919" stroke="#191919" stroke-width="0.43" stroke-linecap="square"/>
<defs>
<clipPath id="clip0">
<rect width="292.919" height="294.304" fill="white" transform="translate(28.04 49.848)"/>
</clipPath>
</defs>
</svg>
