<svg t="1619544736042" class="icon" viewBox="0 0 1092 1024" version="1.1" xmlns="http://www.w3.org/2000/svg" p-id="5452" width="128" height="128"><path d="M903.543467 487.765333L538.760533 850.807467 173.9776 487.765333c-82.602667-82.261333-90.624-215.722667-17.8176-297.5744a211.5584 211.5584 0 0 1 159.982933-71.850666c56.4224 0 109.568 21.7088 149.7088 61.098666l29.866667 29.320534 43.042133 0.477866h41.642667l30.993067-29.559466a212.821333 212.821333 0 0 1 150.016-61.3376c61.883733 0 118.6816 25.531733 159.914666 71.850666 72.8064 81.851733 64.853333 215.3472-17.749333 297.5744m94.276267-365.636266C876.714667-13.994667 667.8528-19.217067 539.921067 106.359467a1.6384 1.6384 0 0 1-2.321067 0C409.668267-19.2512 200.8064-13.994667 79.6672 122.129067c-111.752533 125.576533-97.041067 319.624533 22.084267 438.203733l242.346666 241.220267 193.399467 192.512c0.682667 0.682667 1.809067 0.682667 2.525867 0l193.399466-192.512 242.346667-241.220267c119.125333-118.545067 133.802667-312.661333 22.084267-438.203733" fill="current" p-id="5453"></path></svg>