<svg width="420" height="421" viewBox="0 0 420 421" fill="none" xmlns="http://www.w3.org/2000/svg">
<path d="M331.8 5.13H88.2C41.8081 5.13 4.2 42.7381 4.2 89.13V332.73C4.2 379.122 41.8081 416.73 88.2 416.73H331.8C378.192 416.73 415.8 379.122 415.8 332.73V89.13C415.8 42.7381 378.192 5.13 331.8 5.13Z" fill="#5371FF"/>
<g clip-path="url(#clip0)">
<path d="M180.064 361.098C189.501 361.098 197.151 353.447 197.151 344.01C197.151 334.573 189.501 326.923 180.064 326.923C170.627 326.923 162.977 334.573 162.977 344.01C162.977 353.447 170.627 361.098 180.064 361.098Z" fill="white"/>
<path d="M200.053 270.697C190.122 261.651 182.527 233.01 211.117 222.468C238.396 212.409 270.551 275.707 219.158 288.751C163.811 302.808 139.83 204.675 192.057 168.216C328.801 72.7245 176.46 -10.2512 191.529 125.041C216.917 311.332 219.992 309.047 220.959 334.918C221.615 352.884 210.328 367.118 191.223 363.12C185.029 361.802 192.541 356.219 192.229 356.092C186.213 353.062 178.969 361.14 174.137 360.128C212.308 381.213 225.791 354.246 224.696 333.995C223.945 319.939 202.287 125.92 202.287 120.254C202.287 62.004 237.301 69.0322 234.309 96.1326C231.317 123.233 168.916 168.216 152.836 201.383C136.755 234.551 140.142 278.559 190.001 294.812C239.37 310.893 285.581 254.623 261.467 224.486C224.964 178.847 156 236.518 200.059 270.704L200.053 270.697ZM161.354 111.513H88.4299C86.8214 111.511 85.2792 110.872 84.1418 109.734C83.0044 108.597 82.3647 107.055 82.363 105.446C82.363 102.11 85.0877 99.3857 88.4299 99.3857H161.347C164.683 99.3857 167.408 102.11 167.408 105.446C167.408 108.782 164.728 111.513 161.347 111.513H161.354ZM331.564 111.513H270.768C269.16 111.51 267.62 110.869 266.484 109.732C265.348 108.595 264.709 107.054 264.707 105.446C264.707 102.11 267.432 99.3857 270.774 99.3857H331.57C334.906 99.3857 337.624 102.11 337.624 105.446C337.623 107.054 336.984 108.595 335.848 109.732C334.712 110.869 333.171 111.51 331.564 111.513V111.513ZM143.121 166.198H58.0382C54.7023 166.198 51.9777 163.473 51.9777 160.137C51.9777 156.801 54.696 154.077 58.0382 154.077H143.115C146.457 154.077 149.175 156.795 149.175 160.137C149.185 160.936 149.034 161.728 148.733 162.468C148.432 163.207 147.986 163.879 147.421 164.444C146.856 165.008 146.185 165.454 145.445 165.756C144.705 166.057 143.913 166.207 143.115 166.198H143.121Z" fill="white"/>
<path d="M361.962 166.198H234.315C230.973 166.198 228.248 163.473 228.248 160.137C228.248 156.801 230.973 154.077 234.315 154.077H361.962C365.298 154.077 368.022 156.795 368.022 160.137C368.024 160.934 367.868 161.722 367.564 162.459C367.26 163.195 366.814 163.863 366.251 164.426C365.688 164.99 365.019 165.436 364.283 165.74C363.547 166.044 362.758 166.199 361.962 166.198ZM112.723 220.927H39.8057C36.4699 220.927 33.7452 218.209 33.7452 214.867C33.7452 211.524 36.4699 208.806 39.8057 208.806H112.723C116.065 208.806 118.79 211.531 118.79 214.867C118.79 218.202 116.11 220.927 112.723 220.927V220.927ZM380.188 220.927H289C285.664 220.927 282.939 218.209 282.939 214.867C282.939 211.524 285.664 208.806 289 208.806H380.188C383.53 208.806 386.255 211.531 386.255 214.867C386.255 218.202 383.53 220.927 380.188 220.927ZM124.895 275.612H64.0987C62.4935 275.609 60.9549 274.97 59.8192 273.835C58.6836 272.701 58.0432 271.163 58.0382 269.558C58.0382 266.216 60.7629 263.491 64.0987 263.491H124.895C128.231 263.491 130.955 266.216 130.955 269.558C130.952 271.164 130.312 272.704 129.177 273.839C128.041 274.975 126.501 275.615 124.895 275.618V275.612ZM361.962 275.612H289.006C287.4 275.61 285.86 274.972 284.723 273.838C283.586 272.703 282.945 271.164 282.939 269.558C282.939 266.216 285.664 263.491 289 263.491H361.917C365.253 263.491 367.978 266.216 367.978 269.558C367.984 270.352 367.834 271.139 367.534 271.875C367.235 272.61 366.793 273.279 366.233 273.842C365.674 274.406 365.009 274.853 364.275 275.158C363.542 275.463 362.756 275.619 361.962 275.618V275.612ZM137.06 330.348H94.4968C91.1546 330.348 88.4363 327.623 88.4363 324.287C88.4363 320.951 91.1546 318.226 94.4968 318.226H137.06C140.396 318.226 143.121 320.951 143.121 324.287C143.118 325.893 142.478 327.433 141.342 328.569C140.206 329.705 138.667 330.344 137.06 330.348V330.348Z" fill="white"/>
<path d="M325.459 330.348H258.602C255.266 330.348 252.541 327.623 252.541 324.287C252.541 320.951 255.266 318.226 258.602 318.226H325.459C328.794 318.226 331.519 320.951 331.519 324.287C331.525 325.085 331.372 325.875 331.07 326.613C330.767 327.351 330.321 328.022 329.757 328.586C329.193 329.15 328.523 329.596 327.785 329.898C327.047 330.201 326.256 330.353 325.459 330.348V330.348Z" fill="white"/>
</g>
<defs>
<clipPath id="clip0">
<rect width="352.51" height="313.725" fill="white" transform="translate(33.7452 54.0673)"/>
</clipPath>
</defs>
</svg>
