<svg t="1619965673590" class="icon" viewBox="0 0 1024 1024" version="1.1" xmlns="http://www.w3.org/2000/svg" p-id="2555" width="128" height="128"><path d="M522.666667 149.333333C316.48 149.333333 149.333333 316.48 149.333333 522.666667S316.48 896 522.666667 896 896 728.853333 896 522.666667 728.853333 149.333333 522.666667 149.333333z m0 64C693.504 213.333333 832 351.829333 832 522.666667S693.504 832 522.666667 832 213.333333 693.504 213.333333 522.666667 351.829333 213.333333 522.666667 213.333333z" p-id="2556"></path><path d="M414.314667 428.437333a32 32 0 0 1 63.850666-3.285333l0.149334 3.285333v206.442667a32 32 0 0 1-63.829334 3.264l-0.170666-3.264v-206.442667zM563.648 428.437333a32 32 0 0 1 63.850667-3.285333l0.149333 3.285333v206.442667a32 32 0 0 1-63.829333 3.264l-0.170667-3.264v-206.442667z" p-id="2557" fill="current"></path></svg>