<svg t="1619965642461" class="icon" viewBox="0 0 1024 1024" version="1.1" xmlns="http://www.w3.org/2000/svg" p-id="2401" width="128" height="128"><path d="M522.666667 149.333333C316.48 149.333333 149.333333 316.48 149.333333 522.666667S316.48 896 522.666667 896 896 728.853333 896 522.666667 728.853333 149.333333 522.666667 149.333333z m0 64C693.504 213.333333 832 351.829333 832 522.666667S693.504 832 522.666667 832 213.333333 693.504 213.333333 522.666667 351.829333 213.333333 522.666667 213.333333z" p-id="2402"></path><path d="M427.669333 427.029333v206.442667a53.333333 53.333333 0 0 0 82.389334 44.736l159.018666-103.232a53.333333 53.333333 0 0 0 0-89.472l-159.018666-103.210667a53.333333 53.333333 0 0 0-82.389334 44.736z m64 19.626667l128.768 83.584-128.768 83.584v-167.168z" p-id="2403" fill="current"></path></svg>