<svg t="1619656855173" class="icon" viewBox="0 0 1024 1024" version="1.1" xmlns="http://www.w3.org/2000/svg" p-id="2992" width="128" height="128"><path d="M896 853.333333h-128a42.666667 42.666667 0 0 1 0-85.333333h128a42.666667 42.666667 0 0 0 42.666667-42.666667v-213.333333a42.666667 42.666667 0 0 0-42.666667-42.666667H128a42.666667 42.666667 0 0 0-42.666667 42.666667v213.333333a42.666667 42.666667 0 0 0 42.666667 42.666667h128a42.666667 42.666667 0 0 1 0 85.333333H128a128 128 0 0 1-128-128v-213.333333a128 128 0 0 1 128-128h768a128 128 0 0 1 128 128v213.333333a128 128 0 0 1-128 128z" p-id="2993"></path><path d="M768 469.333333H256a42.666667 42.666667 0 0 1-42.666667-42.666666V42.666667a42.666667 42.666667 0 0 1 42.666667-42.666667h298.666667a42.666667 42.666667 0 0 1 0 85.333333H298.666667v298.666667h426.666666V256a42.666667 42.666667 0 0 1 85.333334 0v170.666667a42.666667 42.666667 0 0 1-42.666667 42.666666zM768 1024H256a42.666667 42.666667 0 0 1-42.666667-42.666667v-384a42.666667 42.666667 0 0 1 42.666667-42.666666h512a42.666667 42.666667 0 0 1 42.666667 42.666666v384a42.666667 42.666667 0 0 1-42.666667 42.666667zM298.666667 938.666667h426.666666v-298.666667H298.666667z" p-id="2994"></path><path d="M640 768H384a42.666667 42.666667 0 0 1 0-85.333333h256a42.666667 42.666667 0 0 1 0 85.333333zM640 896H384a42.666667 42.666667 0 0 1 0-85.333333h256a42.666667 42.666667 0 0 1 0 85.333333zM768 298.666667h-213.333333a42.666667 42.666667 0 0 1-42.666667-42.666667V42.666667a42.666667 42.666667 0 0 1 26.453333-39.253334 42.666667 42.666667 0 0 1 46.506667 8.96l213.333333 213.333334a42.666667 42.666667 0 0 1 8.96 46.506666A42.666667 42.666667 0 0 1 768 298.666667z m-170.666667-85.333334h67.84L597.333333 145.493333z" p-id="2995" fill='current'></path></svg>