<svg t="1619967249831" class="icon" viewBox="0 0 1024 1024" version="1.1" xmlns="http://www.w3.org/2000/svg" p-id="6313" width="128" height="128" fill="current"><path d="M881.92 249.6a112.213333 112.213333 0 0 0-113.92 0l-170.666667 98.133333a113.92 113.92 0 0 0-170.666666-98.56L142.08 413.44a113.92 113.92 0 0 0 0 197.12L426.666667 774.826667a113.493333 113.493333 0 0 0 113.92 0A113.066667 113.066667 0 0 0 597.333333 676.266667l170.666667 98.56a114.773333 114.773333 0 0 0 56.746667 15.36 111.36 111.36 0 0 0 57.173333-15.786667 112.213333 112.213333 0 0 0 56.746667-98.133333v-328.533334a112.213333 112.213333 0 0 0-56.746667-98.133333z m-369.92 426.666667a28.16 28.16 0 0 1-14.08 24.746666 29.44 29.44 0 0 1-28.586667 0l-284.586666-164.266666a28.586667 28.586667 0 0 1 0-49.493334L469.333333 322.986667a28.586667 28.586667 0 0 1 28.586667 0 28.16 28.16 0 0 1 14.08 24.746666z m341.333333 0a28.586667 28.586667 0 0 1-42.666666 24.32l-213.333334-122.88v-131.413334l213.333334-122.88a28.586667 28.586667 0 0 1 42.666666 24.32z" p-id="6314"></path></svg>