<svg t="1619310643909" class="icon" viewBox="0 0 1024 1024" version="1.1" xmlns="http://www.w3.org/2000/svg" p-id="12640" width="128" height="128"><path d="M739.730143 798.872636 574.761927 798.872636l0.340761-54.753021 153.485697 1.792832c36.917818-17.213034 74.156954-47.953152 102.863762-85.057211 31.609928-40.856523 49.018414-84.455507 49.018414-122.766045 0-109.686145-85.856413-200.689788-195.46274-207.178573l-15.361873-0.909719-6.812149-13.796214c-33.275871-67.39597-100.443643-109.263519-175.289282-109.263519-101.895715 0-187.467649 79.612199-194.812941 181.245947l-1.335415 18.47477-17.814738 5.075599c-77.532841 22.093181-129.624243 87.73725-129.624243 163.347299 0 89.969081 75.350129 164.632571 171.662685 170.258709l133.275399 0.185218 0 52.979632-134.789892-0.220011-0.708128-0.038886c-124.70214-6.853082-222.384903-104.878652-222.384903-223.164662 0-49.27424 16.575514-96.006588 47.936779-135.143956 26.373671-32.91669 62.452377-58.585303 102.924137-73.508177 8.083096-55.610552 34.725896-106.745163 76.157517-145.517211 46.114271-43.154869 106.316397-66.921155 169.514765-66.921155 47.249117 0 93.208868 13.356193 132.917242 38.626739 34.272571 21.811772 62.634526 51.610448 82.728166 86.759993 130.263809 15.256472 230.226498 126.104069 230.226498 258.707157 0 109.148909-97.911984 219.209584-188.626032 258.586406L739.730143 798.872636z" p-id="12641" fill="current"></path><path d="M383.662565 661.334143l105.187691-103.054097 0.207731 299.159474c0 13.420661 11.20418 21.653159 24.816199 21.653159 13.612019 0 24.38948-8.274454 24.38948-21.695115l-0.070608-299.874765 105.957217 103.811344c9.708106 9.484002 25.417903 9.484002 35.102473 0 9.685593-9.505491 9.685593-24.915459 0-34.418904L532.69688 483.364823c-5.178953-5.073552-12.019755-7.229658-18.789948-6.898107-6.770194-0.331551-13.612019 1.824555-18.791995 6.898107L348.561116 626.915239c-9.68457 9.503445-9.68457 24.913413 0 34.418904C358.245685 670.817122 373.953436 670.817122 383.662565 661.334143z" p-id="12642" fill="current"></path></svg>