
<svg width="90px" height="90px" viewBox="0 0 90 90" version="1.1" xmlns="http://www.w3.org/2000/svg" xmlns:xlink="http://www.w3.org/1999/xlink">
    <g id="Page-1" stroke="none" stroke-width="1" fill="none" fill-rule="evenodd">
        <g id="Avatar">
            <rect id="Rectangle" fill="#FFF28A" x="0" y="0" width="90" height="90"></rect>
            <g id="music-lover" transform="translate(15.000000, 12.000000)" fill-rule="nonzero">
                <rect id="Rectangle" fill="#000000" opacity="0" x="0" y="0" width="60" height="66"></rect>
                <path d="M54.3014684,54.0390068 L54.0902722,53.9711678 C51.0053165,53.0648597 49.9600587,52.1904908 48.5869341,51.6196725 C43.7171844,49.5834815 42.4497744,48.1184921 42.1255207,47.4237495 C42.1128163,47.3997312 42.1036085,47.3718802 42.0927689,47.3478619 L42.0526743,41.1437266 L30.4995921,41 L18.9454608,41.1437266 L18.9053662,47.3478619 C18.8953425,47.3718802 18.8862513,47.3997312 18.8743628,47.4237495 C18.5502256,48.1184921 17.2828156,49.5834815 12.4113176,51.6196725 C11.038193,52.1906185 9.99468349,53.0648597 6.90972777,53.9711678 L6.69853162,54.0390068 C3.89039205,55.0571023 2,57.9115768 2,61.133225 L2,66 L59,66 L59,61.133225 C59,57.9115768 57.1097245,55.0571023 54.3014684,54.0390068 Z" id="Path" fill="#EC5D5D"></path>
                <path d="M40.6474851,66 C40.1837188,66 39.7298061,65.7661296 39.475912,65.3460947 C39.4198607,65.2509781 38.1062399,63.0474435 38.0062947,59.7420782 C37.9123641,56.7381691 38.826076,52.188425 43.7047089,47.5753967 C46.5640896,44.8686319 48.0956448,41.5831776 48.2556084,37.8103459 C48.3796121,34.9401074 47.6236883,32.83765 47.6157541,32.8178658 C47.3598124,32.1164125 47.721714,31.339627 48.4276012,31.0839535 C49.1332683,30.8256983 49.9165816,31.1832354 50.1772187,31.8825525 C50.2152261,31.9855321 51.1088465,34.4229267 50.9889379,37.7984247 C50.8790109,40.9252244 49.851277,45.498811 45.5883119,49.5292185 C42.2572305,52.6837923 40.6235546,56.0921372 40.7334816,59.6587561 C40.8134633,62.2269043 41.8052375,63.9350716 41.8172667,63.9509244 C42.2051464,64.592898 41.9932267,65.4252317 41.3494053,65.8096296 C41.1372434,65.9351377 40.8945695,66.0009507 40.6474851,66 L40.6474851,66 Z" id="Path" fill="#434A54"></path>
                <path d="M48.4188483,19 C48.4130755,18.9619992 47.7202239,14.86278 45.0642722,10.8501107 C43.5309342,8.53436016 41.6464416,6.69179413 39.4606611,5.37542439 C36.716276,3.72313288 33.4710135,2.88427511 29.8096224,2.88427511 C26.1278425,2.88427511 22.8845452,3.73165263 20.1709889,5.40504068 C18.0157917,6.73195869 16.1755159,8.58940049 14.7016248,10.9198915 C12.1683745,14.9262048 11.595645,18.9260269 11.5908549,18.9661914 L9,18.5350648 C9.02591592,18.3449255 9.67270845,13.8230994 12.5512177,9.27179228 C14.2544217,6.57765646 16.3875105,4.43081347 18.8909145,2.88630362 C22.0007019,0.969899713 25.6738841,0 29.8094996,0 C33.9430271,0 37.6335275,0.969899713 40.7827414,2.88427511 C43.3139037,4.42242895 45.4883843,6.56507968 47.2482103,9.25285949 C50.2228909,13.7957821 50.9692939,18.311117 51,18.5013915 L48.4188483,19 Z" id="Path" fill="#CCD1D9"></path>
                <path d="M46,29.0089826 C46,40.460427 36.3975959,51 30.4996056,51 C24.6006012,51 15,40.460427 15,29.0089826 C15,17.5563848 21.9395081,10 30.4996056,10 C39.0597032,10 46,17.5563848 46,29.0089826 Z" id="Path" fill="#EAC6BB"></path>
                <path d="M40.2615977,7.69320217 C37.4267015,4.93877486 27.577949,0.982113093 18.4438895,7.69320217 C11.2404827,12.9865178 13.2609416,26.3313463 13.2609416,26.3313463 C13.2609416,26.3313463 21.4197367,28.8948045 32.2475106,22.2608051 C39.2464598,17.9709548 41.6854085,22.3338647 42.9390602,26.1321872 C44.1585346,29.8289802 46.6202682,28.8946745 46.6202682,28.8946745 C46.6202682,28.8946745 49.3321504,16.5044316 40.2615977,7.69320217 Z" id="Path" fill="#965353"></path>
                <path d="M38,20.4769802 C38.9022266,20.4494529 39.6610882,20.6455578 40.3022488,21 C41.5293699,16.5682059 43.9456692,15.3741793 45,15.0611383 C44.6443215,14.3481679 44.2412827,13.6595949 43.793565,13 C42.068759,13.6744202 39.3412823,15.5118161 38,20.4769802 Z" id="Path" fill="#7F4242"></path>
                <path d="M50.8328229,17 L46.1655366,17 C45.5211883,17 45,17.6349914 45,18.4174082 L45,32.5847166 C44.999826,32.9601379 45.1225672,33.3202436 45.3411855,33.5857066 C45.5598037,33.8511695 45.8563637,34.0002113 46.1655366,34 L50.8328229,34 C51.4770618,34 52,33.3670006 52,32.5847166 L52,18.4174082 C51.9998906,17.6349914 51.4769524,17 50.8328229,17 L50.8328229,17 Z" id="Path" fill="#656D78"></path>
                <path d="M45.4981245,23.6680417 C46.8826894,23.6680417 48,23.0704074 48,22.3340208 C48,21.5976343 46.8826894,21 45.4981245,21 L43,21 L43,23.6680417 L45.4981245,23.6680417 Z M45.4981245,29 C46.8826894,29 48,28.4042407 48,27.6679792 C48,26.9317177 46.8826894,26.3339583 45.4981245,26.3339583 L43,26.3339583 L43,29 L45.4981245,29 Z" id="Shape" fill="#434A54"></path>
                <path d="M10.1663021,17 L14.8327135,17 C15.4770618,17 16,17.6349914 16,18.4174082 L16,32.5847168 C16,33.3671336 15.4770618,34 14.8327135,34 L10.1663021,34 C9.52195381,34 9,33.3670008 9,32.5847168 L9,18.4174082 C9,17.6349914 9.52206319,17 10.1663021,17 Z" id="Path" fill="#656D78"></path>
                <path d="M15.4989454,23.6680417 C14.1183501,23.6680417 13,23.0704074 13,22.3340208 C13,21.5976343 14.1183501,21 15.4989454,21 L18,21 L18,23.6680417 L15.4989454,23.6680417 L15.4989454,23.6680417 Z M15.4989454,29 C14.1183501,29 13,28.4042407 13,27.6679792 C13,26.9317177 14.1183501,26.3339583 15.4989454,26.3339583 L18,26.3339583 L18,29 L15.4989454,29 L15.4989454,29 Z" id="Shape" fill="#434A54"></path>
            </g>
        </g>
    </g>
</svg>