
<svg width="90px" height="90px" viewBox="0 0 90 90" version="1.1" xmlns="http://www.w3.org/2000/svg" xmlns:xlink="http://www.w3.org/1999/xlink">
    <g id="Page-1" stroke="none" stroke-width="1" fill="none" fill-rule="evenodd">
        <g id="Avatar">
            <rect id="Rectangle" fill-opacity="0.355297595" fill="#494848" x="0" y="0" width="90" height="90"></rect>
            <g id="music-lover" transform="translate(18.000000, 19.000000)" fill="#707070" fill-rule="nonzero">
                <rect id="Rectangle" opacity="0" x="0" y="0" width="53" height="53"></rect>
                <path d="M47.7960507,43.4312054 L47.6070857,43.3769342 C44.8468621,42.6518877 43.9116315,41.9523926 42.6830463,41.495738 C38.3259018,39.8667852 37.1919034,38.6947936 36.9017816,38.1389996 C36.8904145,38.119785 36.882176,38.0975041 36.8724775,38.0782895 L36.8366033,33.1149813 L26.499635,33 L16.1617281,33.1149813 L16.125854,38.0782895 C16.1168854,38.0975041 16.1087512,38.119785 16.0981141,38.1389996 C15.8080966,38.6947936 14.6740982,39.8667852 10.3153894,41.495738 C9.08680423,41.9524948 8.15313786,42.6518877 5.39291432,43.3769342 L5.20394935,43.4312054 C2.69140341,44.2456818 1,46.5292615 1,49.10658 L1,53 L52,53 L52,49.10658 C52,46.5292615 50.3087009,44.2456818 47.7960507,43.4312054 Z" id="Path"></path>
                <path d="M35.2401797,53 C34.847762,53 34.4636821,52.8129037 34.2488486,52.4768758 C34.2014206,52.4007825 33.0898953,50.6379548 33.0053263,47.9936626 C32.9258465,45.5905353 33.6989874,41.95074 37.8270613,38.2603173 C40.2465374,36.0949055 41.5424687,33.4665421 41.6778225,30.4482768 C41.7827487,28.1520859 41.1431209,26.47012 41.1364073,26.4542926 C40.9198413,25.89313 41.2260657,25.2717016 41.8233549,25.0671628 C42.4204578,24.8605586 43.0832614,25.1465883 43.3038005,25.706042 C43.3359605,25.7884257 44.0921009,27.7383414 43.9906397,30.4387397 C43.8976246,32.9401795 43.0280036,36.5990488 39.4208793,39.8233748 C36.602272,42.3470338 35.2199308,45.0737097 35.3129459,47.9270048 C35.3806228,49.9815234 36.2198163,51.3480573 36.2299949,51.3607395 C36.5582008,51.8743184 36.3788841,52.5401854 35.8341122,52.8477037 C35.6545906,52.9481102 35.4492511,53.0007605 35.2401797,53 L35.2401797,53 Z" id="Path"></path>
                <path d="M42.7875842,15 C42.7826362,14.9699994 42.1887633,11.7337737 39.9122333,8.56587685 C38.5979436,6.73765276 36.9826642,5.28299537 35.1091381,4.24375609 C32.756808,2.93931543 29.9751544,2.2770593 26.8368192,2.2770593 C23.6810079,2.2770593 20.9010387,2.94604155 18.5751334,4.26713738 C16.7278214,5.31470423 15.1504422,6.78110565 13.887107,8.620967 C11.7157496,11.7838459 11.2248386,14.9416002 11.2207327,14.973309 L9,14.6329459 C9.02221364,14.4828359 9.57660724,10.9129732 12.0439009,7.31983601 C13.50379,5.19288668 15.3321519,3.49801063 17.4779267,2.27866075 C20.1434587,0.7657103 23.2919006,0 26.8367139,0 C30.3797375,0 33.5430236,0.7657103 36.2423498,2.2770593 C38.4119175,3.49139128 40.275758,5.18295764 41.7841802,7.30488907 C44.3339065,10.8914069 44.9736805,14.456145 45,14.6063617 L42.7875842,15 Z" id="Path"></path>
                <path d="M41,23.2999128 C41,32.516929 32.3268608,41 26.9996438,41 C21.6715108,41 13,32.516929 13,23.2999128 C13,14.0819683 19.2679428,8 26.9996438,8 C34.7313448,8 41,14.0819683 41,23.2999128 Z" id="Path"></path>
                <path d="M36.0543509,6.95456174 C33.5529719,4.75101989 24.8628962,1.58569047 16.8034319,6.95456174 C10.4474847,11.1892142 12.2302426,21.865077 12.2302426,21.865077 C12.2302426,21.865077 19.4291794,23.9158436 28.9830976,18.608644 C35.158641,15.1767639 37.3106546,18.6670918 38.4168178,21.7057498 C39.4928246,24.6631842 41.6649426,23.9157396 41.6649426,23.9157396 C41.6649426,23.9157396 44.0577798,14.0035453 36.0543509,6.95456174 Z" id="Path"></path>
                <path d="M33,16.5423577 C33.7733371,16.5182713 34.4237899,16.6898631 34.9733561,17 C36.0251742,13.1221802 38.0962879,12.0774069 39,11.803496 C38.6951327,11.179647 38.3496709,10.5771455 37.9659129,10 C36.4875077,10.5901177 34.1496705,12.1978391 33,16.5423577 Z" id="Path"></path>
                <path d="M45.9995625,13 L41.9990314,13 C41.4467329,13 41,13.5229341 41,14.1672773 L41,25.8344725 C40.9998508,26.143643 41.1050576,26.4402006 41.2924447,26.6588172 C41.4798318,26.8774337 41.7340261,27.000174 41.9990314,27 L45.9995625,27 C46.5517673,27 47,26.4787064 47,25.8344725 L47,14.1672773 C46.9999062,13.5229341 46.5516735,13 45.9995625,13 L45.9995625,13 Z" id="Path"></path>
                <path d="M40.9984996,19.0010313 C42.1061515,19.0010313 43,18.5528055 43,18.0005156 C43,17.4482258 42.1061515,17 40.9984996,17 L39,17 L39,19.0010313 L40.9984996,19.0010313 Z M40.9984996,23 C42.1061515,23 43,22.5531805 43,22.0009844 C43,21.4487883 42.1061515,21.0004688 40.9984996,21.0004688 L39,21.0004688 L39,23 L40.9984996,23 Z" id="Shape"></path>
                <path d="M7.99968749,13 L11.9994687,13 C12.5517672,13 13,13.5229341 13,14.1672774 L13,25.8344727 C13,26.4788159 12.5517672,27 11.9994687,27 L7.99968749,27 C7.44738898,27 7,26.4787065 7,25.8344727 L7,14.1672774 C7,13.5229341 7.44748273,13 7.99968749,13 Z" id="Path"></path>
                <path d="M12.9991563,19.0010313 C11.8946801,19.0010313 11,18.5528055 11,18.0005156 C11,17.4482258 11.8946801,17 12.9991563,17 L15,17 L15,19.0010313 L12.9991563,19.0010313 L12.9991563,19.0010313 Z M12.9991563,23 C11.8946801,23 11,22.5531805 11,22.0009844 C11,21.4487883 11.8946801,21.0004688 12.9991563,21.0004688 L15,21.0004688 L15,23 L12.9991563,23 L12.9991563,23 Z" id="Shape"></path>
            </g>
        </g>
    </g>
</svg>